<svg xmlns="http://www.w3.org/2000/svg" viewBox="0 0 800 130" role="img" aria-label="Eight-frame astronaut walking sprite"><defs><style>.s{fill:#e7edf2;stroke:#173248;stroke-width:4;stroke-linejoin:round}.v{fill:#73e5eb;stroke:#173248;stroke-width:4}.l{fill:none;stroke:#e7edf2;stroke-width:12;stroke-linecap:round}</style></defs><g id="f"><rect class="s" x="35" y="45" width="32" height="47" rx="10"/><circle class="s" cx="51" cy="30" r="19"/><path class="v" d="M38 30a13 13 0 0 1 26 0"/></g><g transform="translate(0)"><use href="#f"/><path class="l" d="m42 89-8 27m27-27 7 27m-27-55-16 17m37-17 16 17"/></g><g transform="translate(100)"><use href="#f"/><path class="l" d="m42 89-14 22m33-22 14 23m-34-51-10 22m31-22 19 8"/></g><g transform="translate(200)"><use href="#f"/><path class="l" d="m42 89-17 18m36-18 19 17m-39-47-2 23m23-23 22-3"/></g><g transform="translate(300)"><use href="#f"/><path class="l" d="m42 89-13 22m33-22 10 25m-31-52-14 17m35-17 15 17"/></g><g transform="translate(400)"><use href="#f"/><path class="l" d="m42 89-7 27m27-27 7 27m-21-55-15 20m29-20 18 8"/></g><g transform="translate(500)"><use href="#f"/><path class="l" d="m42 89-15 22m34-22 16 20m-35-48-8 21m28-21 21-6"/></g><g transform="translate(600)"><use href="#f"/><path class="l" d="m42 89-18 17m37-17 20 18m-39-46-1 22m21-22 22 2"/></g><g transform="translate(700)"><use href="#f"/><path class="l" d="m42 89-12 24m31-24 10 25m-30-52-15 15m36-15 14 18"/></g></svg>
